<svg id="e3ylIDebrkZ1" xmlns="http://www.w3.org/2000/svg" xmlns:xlink="http://www.w3.org/1999/xlink" viewBox="0 0 64 64" shape-rendering="geometricPrecision" text-rendering="geometricPrecision" project-id="18a34f93bb2a410e858b7fef4a52c27c" export-id="52eda26f80af4041aca89e1c9223a927" cached="false"><g transform="matrix(.473109 0 0 0.47861-3.55355 1.37723)"><rect width="153.846154" height="15.625" rx="0" ry="0" transform="matrix(.853084 0 0 0.658219 9.52691 104.61529)" fill="none" stroke="#000" stroke-width="3"/><rect width="153.846154" height="15.625" rx="0" ry="0" transform="matrix(.853084 0 0 0.658219 9.52691 22.527984)" fill="none" stroke="#000" stroke-width="3"/><path d="M0,0h110.245838v69.704421L0,69.704421L0,0Z" transform="translate(20.025837 33.81896)" fill="none" stroke="#000" stroke-width="3"/><rect width="19.654375" height="11.192075" rx="0" ry="0" transform="matrix(1 0 0 0.845465 20.995867 13.065477)" fill="none" stroke="#000" stroke-width="2"/><rect width="19.654375" height="11.192075" rx="0" ry="0" transform="matrix(1 0 0 0.845465 109.045151 13.065477)" fill="none" stroke="#000" stroke-width="2"/><rect width="53.369122" height="9.016908" rx="0" ry="0" transform="matrix(1.049151 0 0 1 47.690798 13.065477)" fill="none" stroke="#000" stroke-width="2"/><rect width="107.703659" height="10.645005" rx="0" ry="0" transform="matrix(.996618 0 0 0.854861 21.428515 93.258516)" fill="#de9c08"/><rect width="107.703659" height="11.7" rx="0" ry="0" transform="matrix(.996618 0 0 1 21.529575 81.658516)" fill="#de9c08"/><rect width="107.703659" height="11.8" rx="0" ry="0" transform="matrix(.996618 0 0 1 21.529575 70.058516)" fill="#de9c08"/><line x1="-5.461517" y1="0" x2="5.461517" y2="0" transform="matrix(1.28912 0 0 1 40.650242 68.671171)" fill="none" stroke="#000" stroke-width="4"/><line x1="-5.461517" y1="0" x2="5.461517" y2="0" transform="matrix(0 1.259994-1 0 40.650242 68.671171)" fill="none" stroke="#000" stroke-width="4"/><line x1="-5.461517" y1="0" x2="5.461517" y2="0" transform="matrix(1.28912 0 0 1 109.045151 68.671178)" fill="none" stroke="#000" stroke-width="4"/></g></svg>
